<svg width="32" height="32" viewBox="0 0 32 32" fill="none" xmlns="http://www.w3.org/2000/svg">
  <rect width="32" height="32" rx="16" fill="#4A90E2"/>
  <path d="M16 8C11.6 8 8 11.6 8 16C8 20.4 11.6 24 16 24C20.4 24 24 20.4 24 16C24 11.6 20.4 8 16 8ZM16 22C12.7 22 10 19.3 10 16C10 12.7 12.7 10 16 10C19.3 10 22 12.7 22 16C22 19.3 19.3 22 16 22Z" fill="white"/>
  <path d="M16 12C14.9 12 14 12.9 14 14C14 15.1 14.9 16 16 16C17.1 16 18 15.1 18 14C18 12.9 17.1 12 16 12Z" fill="white"/>
  <path d="M16 17C13.2 17 11 19.2 11 22H13C13 20.3 14.3 19 16 19C17.7 19 19 20.3 19 22H21C21 19.2 18.8 17 16 17Z" fill="white"/>
</svg>
