<svg width="200" height="50" viewBox="0 0 200 50" fill="none" xmlns="http://www.w3.org/2000/svg">
  <rect width="50" height="50" rx="10" fill="#4A90E2"/>
  <path d="M15 25C15 19.4772 19.4772 15 25 15C30.5228 15 35 19.4772 35 25C35 30.5228 30.5228 35 25 35C19.4772 35 15 30.5228 15 25Z" fill="white"/>
  <path d="M25 17.5C20.8579 17.5 17.5 20.8579 17.5 25C17.5 29.1421 20.8579 32.5 25 32.5C29.1421 32.5 32.5 29.1421 32.5 25" stroke="#4A90E2" stroke-width="2"/>
  <path d="M25 20C22.7909 20 21 22.0147 21 24.5C21 26.9853 22.7909 29 25 29C27.2091 29 29 26.9853 29 24.5" stroke="#4A90E2" stroke-width="2"/>
  <text x="60" y="33" font-family="Arial" font-size="20" font-weight="bold" fill="#2C3E50">Misophonia</text>
  <text x="170" y="33" font-family="Arial" font-size="20" font-weight="bold" fill="#4A90E2">Companion</text>
</svg>
