<svg width="800" height="400" viewBox="0 0 800 400" fill="none" xmlns="http://www.w3.org/2000/svg">
  <rect width="800" height="400" rx="10" fill="#F8F9FA"/>
  
  <!-- Title -->
  <text x="400" y="50" font-family="Arial" font-size="24" font-weight="bold" text-anchor="middle" fill="#2C3E50">Research Database: 134+ Academic Papers</text>
  
  <!-- Database Visualization -->
  <rect x="100" y="80" width="600" height="240" rx="5" fill="#E6EFF9"/>
  
  <!-- Nodes representing papers -->
  <circle cx="200" cy="150" r="15" fill="#4A90E2"/>
  <circle cx="250" cy="180" r="12" fill="#4A90E2"/>
  <circle cx="300" cy="130" r="10" fill="#4A90E2"/>
  <circle cx="350" cy="200" r="14" fill="#4A90E2"/>
  <circle cx="400" cy="160" r="13" fill="#4A90E2"/>
  <circle cx="450" cy="140" r="11" fill="#4A90E2"/>
  <circle cx="500" cy="190" r="15" fill="#4A90E2"/>
  <circle cx="550" cy="170" r="12" fill="#4A90E2"/>
  <circle cx="600" cy="150" r="10" fill="#4A90E2"/>
  
  <circle cx="180" cy="220" r="12" fill="#4A90E2"/>
  <circle cx="230" cy="240" r="10" fill="#4A90E2"/>
  <circle cx="280" cy="210" r="14" fill="#4A90E2"/>
  <circle cx="330" cy="250" r="11" fill="#4A90E2"/>
  <circle cx="380" cy="230" r="13" fill="#4A90E2"/>
  <circle cx="430" cy="260" r="12" fill="#4A90E2"/>
  <circle cx="480" cy="220" r="10" fill="#4A90E2"/>
  <circle cx="530" cy="250" r="15" fill="#4A90E2"/>
  <circle cx="580" cy="240" r="11" fill="#4A90E2"/>
  
  <!-- Connections between papers -->
  <path d="M200 150 L250 180" stroke="#4A90E2" stroke-width="1" stroke-opacity="0.5"/>
  <path d="M250 180 L300 130" stroke="#4A90E2" stroke-width="1" stroke-opacity="0.5"/>
  <path d="M300 130 L350 200" stroke="#4A90E2" stroke-width="1" stroke-opacity="0.5"/>
  <path d="M350 200 L400 160" stroke="#4A90E2" stroke-width="1" stroke-opacity="0.5"/>
  <path d="M400 160 L450 140" stroke="#4A90E2" stroke-width="1" stroke-opacity="0.5"/>
  <path d="M450 140 L500 190" stroke="#4A90E2" stroke-width="1" stroke-opacity="0.5"/>
  <path d="M500 190 L550 170" stroke="#4A90E2" stroke-width="1" stroke-opacity="0.5"/>
  <path d="M550 170 L600 150" stroke="#4A90E2" stroke-width="1" stroke-opacity="0.5"/>
  
  <path d="M180 220 L230 240" stroke="#4A90E2" stroke-width="1" stroke-opacity="0.5"/>
  <path d="M230 240 L280 210" stroke="#4A90E2" stroke-width="1" stroke-opacity="0.5"/>
  <path d="M280 210 L330 250" stroke="#4A90E2" stroke-width="1" stroke-opacity="0.5"/>
  <path d="M330 250 L380 230" stroke="#4A90E2" stroke-width="1" stroke-opacity="0.5"/>
  <path d="M380 230 L430 260" stroke="#4A90E2" stroke-width="1" stroke-opacity="0.5"/>
  <path d="M430 260 L480 220" stroke="#4A90E2" stroke-width="1" stroke-opacity="0.5"/>
  <path d="M480 220 L530 250" stroke="#4A90E2" stroke-width="1" stroke-opacity="0.5"/>
  <path d="M530 250 L580 240" stroke="#4A90E2" stroke-width="1" stroke-opacity="0.5"/>
  
  <path d="M200 150 L280 210" stroke="#4A90E2" stroke-width="1" stroke-opacity="0.5"/>
  <path d="M250 180 L330 250" stroke="#4A90E2" stroke-width="1" stroke-opacity="0.5"/>
  <path d="M300 130 L380 230" stroke="#4A90E2" stroke-width="1" stroke-opacity="0.5"/>
  <path d="M350 200 L430 260" stroke="#4A90E2" stroke-width="1" stroke-opacity="0.5"/>
  <path d="M400 160 L480 220" stroke="#4A90E2" stroke-width="1" stroke-opacity="0.5"/>
  <path d="M450 140 L530 250" stroke="#4A90E2" stroke-width="1" stroke-opacity="0.5"/>
  <path d="M500 190 L580 240" stroke="#4A90E2" stroke-width="1" stroke-opacity="0.5"/>
  
  <!-- Legend -->
  <rect x="250" y="320" width="300" height="50" rx="5" fill="white" stroke="#E0E0E0"/>
  <circle cx="275" cy="345" r="10" fill="#4A90E2"/>
  <text x="295" y="350" font-family="Arial" font-size="14" fill="#2C3E50">Academic Paper</text>
  
  <path d="M400 345 L450 345" stroke="#4A90E2" stroke-width="1" stroke-opacity="0.5"/>
  <text x="470" y="350" font-family="Arial" font-size="14" fill="#2C3E50">Relationship</text>
</svg>
